#!OML:ASF F:\VICON\USERDATA\INSTALL\rory3\rory3.ASF
:FULLY-SPECIFIED
:DEGREES
1814
root -4.24364 17.7137 4.43555 179.582 -76.5022 189.54
lowerback 2.52979 -3.36342 -3.06219
upperback 1.95199 -4.75056 6.12411
thorax 1.38206 -2.56367 8.16357
lowerneck -6.03835 -7.38004 -14.4683
upperneck 40.1026 -13.7254 3.69939
head 16.8826 -8.40166 1.66059
rclavicle -1.53064e-014 6.99722e-014
rhumerus -33.0977 -0.571308 -74.6421
rradius 44.3408
rwrist 20.1803
rhand -26.4101 8.79662
rfingers 7.12502
rthumb 0.149634 -21.1831
lclavicle -1.53064e-014 6.99722e-014
lhumerus -33.342 6.1902 83.8236
lradius 45.0365
lwrist -6.35437
lhand -16.5262 23.4239
lfingers 7.12502
lthumb 9.69248 53.1809
rfemur -12.8248 10.1744 27.7144
rtibia 32.0611
rfoot 2.89203 22.671
rtoes 37.1607
lfemur -31.7974 0.45406 -20.0391
ltibia 27.6874
lfoot -1.27475 -1.17953
ltoes 2.89388
1815
root -4.30896 17.7019 4.42148 184.444 -75.7218 184.577
lowerback 2.24382 -3.1519 -4.24572
upperback 2.0279 -4.44544 5.54546
thorax 1.61623 -2.41503 8.20607
lowerneck -5.69498 -7.5061 -13.7154
upperneck 40.1484 -14.1051 3.47305
head 16.7629 -8.49744 1.39214
rclavicle -7.55382e-015 8.11041e-014
rhumerus -33.4226 -1.25539 -74.5723
rradius 44.2529
rwrist 20.5255
rhand -26.5347 8.63526
rfingers 7.12502
rthumb 0.0292774 -21.3445
lclavicle -7.55382e-015 8.11041e-014
lhumerus -33.3486 5.55435 83.4408
lradius 44.8369
lwrist -6.94369
lhand -14.7643 21.7105
lfingers 7.12502
lthumb 11.392 51.381
rfemur -13.1051 9.6538 26.4212
rtibia 32.954
rfoot 3.7887 23.0763
rtoes 37.4249
lfemur -31.2804 0.293378 -21.396
ltibia 27.4816
lfoot -2.22267 0.222861
ltoes -1.02722
1816
root -4.37248 17.6924 4.41035 186.416 -74.8999 182.445
lowerback 2.01745 -2.6791 -4.6994
upperback 2.22755 -3.78618 4.96583
thorax 1.82412 -2.08489 7.83513
lowerneck -5.29855 -7.89767 -12.5459
upperneck 40.1096 -14.9769 3.32897
head 16.6013 -8.71537 1.01656
rclavicle -1.64991e-014 -2.46493e-014
rhumerus -33.8667 -3.02398 -74.4322
rradius 44.2145
rwrist 21.0731
rhand -26.5707 8.55561
rfingers 7.12502
rthumb -0.00546949 -21.4241
lclavicle -1.64991e-014 -2.46493e-014
lhumerus -32.9635 3.98536 83.2257
lradius 44.5403
lwrist -7.14414
lhand -13.4199 20.8625
lfingers 7.12502
lthumb 12.6884 50.457
rfemur -13.2652 8.93984 25.8016
rtibia 33.887
rfoot 4.66254 23.7413
rtoes 37.7968
lfemur -30.6389 -0.319081 -21.7627
ltibia 27.164
lfoot -2.90578 1.89544
ltoes -3.96996
1817
root -4.43088 17.6845 4.39795 185.995 -74.1537 182.702
lowerback 2.135 -2.51515 -5.06448
upperback 2.28117 -3.57909 5.03639
thorax 1.80784 -1.99119 8.13102
lowerneck -5.03398 -7.94004 -12.2808
upperneck 40.2764 -15.1177 3.02792
head 16.5783 -8.79695 0.831274
rclavicle 1.17283e-014 -1.59028e-014
rhumerus -34.1541 -3.32998 -74.0315
rradius 44.1418
rwrist 21.4187
rhand -26.8978 8.63319
rfingers 7.12502
rthumb -0.321385 -21.3463
lclavicle 1.17283e-014 -1.59028e-014
lhumerus -33.0288 3.32617 83.7223
lradius 44.4662
lwrist -5.81322
lhand -14.9246 22.7023
lfingers 7.12502
lthumb 11.2375 52.3814
rfemur -13.3329 8.4435 25.8841
rtibia 34.7945
rfoot 5.26374 24.0805
rtoes 37.9446
lfemur -30.0367 -0.628336 -21.4051
ltibia 26.8867
lfoot -3.04551 3.15096
ltoes -4.04905
1818
root -4.49284 17.6799 4.38465 185.336 -73.4977 183.306
lowerback 2.22601 -2.68605 -5.33476
upperback 2.29272 -3.83005 5.30528
thorax 1.85407 -2.13449 8.58023
lowerneck -4.98409 -7.66981 -12.7478
upperneck 40.5179 -14.7052 2.91369
head 16.6914 -8.73816 0.918086
rclavicle 1.78906e-015 -2.38542e-015
rhumerus -34.1021 -2.6425 -73.7139
rradius 43.9682
rwrist 21.6954
rhand -27.0587 8.67175
rfingers 7.12502
rthumb -0.476831 -21.3075
lclavicle 1.78906e-015 -2.38542e-015
lhumerus -33.3531 3.57198 84.2162
lradius 44.6479
lwrist -4.07613
lhand -17.1877 25.3828
lfingers 7.12502
lthumb 9.05421 55.1684
rfemur -13.4716 8.03625 26.0392
rtibia 35.6093
rfoot 5.91415 24.1035
rtoes 37.7654
lfemur -29.6888 -0.383548 -21.066
ltibia 26.8812
lfoot -3.33827 3.27324
ltoes -3.51394
1819
root -4.55478 17.6782 4.36591 186.335 -72.9082 182.354
lowerback 1.95007 -2.85158 -5.6767
upperback 2.37181 -4.03691 5.1037
thorax 2.14126 -2.25252 8.53881
lowerneck -4.83142 -7.43678 -12.7482
upperneck 40.6375 -14.5089 3.02861
head 16.7081 -8.67456 1.00588
rclavicle -2.72335e-014 -3.10104e-014
rhumerus -34.1193 -2.79521 -73.7581
rradius 43.9103
rwrist 22.2985
rhand -26.8298 8.76967
rfingers 7.12502
rthumb -0.255682 -21.2099
lclavicle -2.72335e-014 -3.10104e-014
lhumerus -33.3879 3.91295 83.7899
lradius 44.3859
lwrist -4.18054
lhand -17.055 25.0733
lfingers 7.12502
lthumb 9.18227 54.8534
rfemur -13.8397 7.28177 25.6444
rtibia 36.4645
rfoot 7.08999 24.2159
rtoes 37.9546
lfemur -29.4981 -0.31223 -21.1245
ltibia 27.0248
lfoot -3.95844 2.86221
ltoes -2.13322
1820
root -4.61109 17.6865 4.34335 187.383 -72.3406 181.398
lowerback 1.84138 -2.99362 -6.27696
upperback 2.28522 -4.2179 5.01897
thorax 2.1878 -2.35013 8.78819
lowerneck -4.731 -7.21537 -12.6003
upperneck 40.9523 -14.2654 2.78049
head 16.7827 -8.62047 0.909968
rclavicle -5.80451e-014 -2.3059e-014
rhumerus -34.377 -2.78552 -73.6243
rradius 43.9019
rwrist 22.8141
rhand -26.7374 9.00036
rfingers 7.12502
rthumb -0.166485 -20.9793
lclavicle -5.80451e-014 -2.3059e-014
lhumerus -33.4322 6.42795 82.0996
lradius 42.4682
lwrist -9.12231
lhand -12.0998 14.8068
lfingers 7.12502
lthumb 13.9608 44.318
rfemur -14.3633 6.5253 25.2399
rtibia 37.4595
rfoot 8.17412 24.3003
rtoes 38.0032
lfemur -29.2632 -0.388911 -21.0595
ltibia 27.1411
lfoot -4.51761 2.58285
ltoes 1.60495
1821
root -4.6627 17.6951 4.31898 187.322 -71.7909 181.485
lowerback 1.89891 -2.99181 -6.46779
upperback 2.18304 -4.20873 4.88075
thorax 2.05036 -2.33397 8.75621
lowerneck -4.32832 -7.09827 -12.2392
upperneck 41.159 -14.2842 2.6078
head 16.7401 -8.64189 0.790395
rclavicle 3.97569e-015 -3.89618e-014
rhumerus -34.736 -3.07609 -73.583
rradius 43.673
rwrist 23.0241
rhand -27.145 9.23533
rfingers 7.12502
rthumb -0.560127 -20.7437
lclavicle 3.97569e-015 -3.89618e-014
lhumerus -33.7586 4.63482 82.8371
lradius 43.1571
lwrist -5.81046
lhand -15.3306 21.5454
lfingers 7.12502
lthumb 10.8459 51.2453
rfemur -14.862 6.08061 25.191
rtibia 38.6039
rfoot 9.1092 24.1255
rtoes 38.2178
lfemur -28.9751 0.240585 -20.8887
ltibia 27.1859
lfoot -4.77263 2.20075
ltoes 3.21606
1822
root -4.71331 17.6906 4.29159 187.512 -71.2867 181.315
lowerback 1.9464 -3.05907 -6.81777
upperback 2.1365 -4.29984 4.82655
thorax 2.01732 -2.38107 8.90328
lowerneck -4.13058 -6.95447 -12.263
upperneck 41.4015 -14.2116 2.56078
head 16.8158 -8.65767 0.785082
rclavicle -5.68524e-014 5.725e-014
rhumerus -34.7843 -3.33378 -73.4365
rradius 43.3161
rwrist 23.3973
rhand -27.7146 9.27818
rfingers 7.12502
rthumb -1.11026 -20.6987
lclavicle -5.68524e-014 5.725e-014
lhumerus -33.9091 4.17522 83.0286
lradius 43.211
lwrist -4.14801
lhand -17.0321 24.393
lfingers 7.12502
lthumb 9.20436 54.1721
rfemur -15.4235 5.62374 25.0639
rtibia 39.8574
rfoot 10.1948 23.9428
rtoes 38.3357
lfemur -28.8982 1.62429 -21.1599
ltibia 27.2049
lfoot -4.90693 1.17367
ltoes -0.0490533
1823
root -4.76139 17.689 4.26568 188.383 -70.8654 180.541
lowerback 1.85397 -3.2036 -7.36479
upperback 2.07713 -4.48691 4.75562
thorax 2.08621 -2.48305 9.1356
lowerneck -3.90914 -6.75281 -12.3766
upperneck 41.6092 -14.0528 2.57099
head 16.8733 -8.64632 0.836554
rclavicle 1.51076e-014 3.97569e-015
rhumerus -34.8078 -3.79373 -73.1771
rradius 42.9961
rwrist 24.2607
rhand -28.0915 9.25377
rfingers 7.12502
rthumb -1.47428 -20.7209
lclavicle 1.51076e-014 3.97569e-015
lhumerus -33.9369 4.72493 82.6976
lradius 42.6669
lwrist -4.43571
lhand -16.408 23.629
lfingers 7.12502
lthumb 9.80657 53.3806
rfemur -16.1793 4.84936 24.7043
rtibia 41.1855
rfoot 11.56 23.7809
rtoes 38.483
lfemur -28.941 3.00633 -21.6729
ltibia 27.1995
lfoot -5.09294 -0.290945
ltoes -2.23509
1824
root -4.80445 17.6957 4.24453 189.108 -70.521 180.073
lowerback 1.63906 -3.43463 -7.80698
upperback 2.01754 -4.78614 4.7928
thorax 2.2527 -2.64793 9.41132
lowerneck -3.81171 -6.51345 -12.7186
upperneck 41.7535 -13.7767 2.65807
head 16.9456 -8.6029 0.972768
rclavicle 2.0276e-014 -3.65764e-014
rhumerus -34.505 -3.8733 -72.8454
rradius 42.5649
rwrist 24.97
rhand -28.2427 9.31578
rfingers 7.12502
rthumb -1.6203 -20.6578
lclavicle 2.0276e-014 -3.65764e-014
lhumerus -33.8581 5.34752 82.5418
lradius 42.0974
lwrist -4.83195
lhand -16.1297 23.6553
lfingers 7.12502
lthumb 10.075 53.3941
rfemur -17.1779 3.90758 24.4525
rtibia 42.5561
rfoot 12.8079 23.5868
rtoes 38.4315
lfemur -29.0613 3.98042 -21.9623
ltibia 27.1714
lfoot -5.24968 -1.35806
ltoes -2.42162
1825
root -4.84573 17.6991 4.22654 189.58 -70.125 179.921
lowerback 1.38363 -3.4393 -7.87985
upperback 1.93288 -4.76398 4.60876
thorax 2.29198 -2.62877 9.23909
lowerneck -3.57804 -6.43118 -12.6483
upperneck 41.9062 -13.8689 2.81722
head 16.9947 -8.64173 1.02094
rclavicle 5.4467e-014 4.37326e-014
rhumerus -34.3806 -4.3937 -72.6535
rradius 42.0343
rwrist 24.9413
rhand -28.7014 9.34831
rfingers 7.12502
rthumb -2.06335 -20.6215
lclavicle 5.4467e-014 4.37326e-014
lhumerus -33.7013 4.86337 82.3956
lradius 41.594
lwrist -4.62415
lhand -16.1671 24.2275
lfingers 7.12502
lthumb 10.0389 53.9681
rfemur -18.257 2.92477 24.3193
rtibia 43.9333
rfoot 14.1903 23.395
rtoes 38.0643
lfemur -29.2376 4.59118 -22.0916
ltibia 27.1896
lfoot -5.46575 -1.64203
ltoes -3.18775
1826
root -4.8904 17.6993 4.20837 189.511 -69.7834 180.028
lowerback 1.457 -3.53904 -7.87462
upperback 1.9053 -4.89909 4.53602
thorax 2.24403 -2.691 9.15739
lowerneck -3.48388 -6.25619 -12.728
upperneck 42.0935 -13.6736 2.74578
head 17.0552 -8.61012 1.03136
rclavicle -2.74323e-014 2.14687e-014
rhumerus -34.3114 -4.58306 -72.5167
rradius 41.6288
rwrist 24.7211
rhand -29.473 9.22033
rfingers 7.12502
rthumb -2.80856 -20.7409
lclavicle -2.74323e-014 2.14687e-014
lhumerus -33.7111 4.77897 82.2684
lradius 41.2597
lwrist -4.00945
lhand -16.061 24.8213
lfingers 7.12502
lthumb 10.1413 54.5569
rfemur -19.0485 1.79154 24.2679
rtibia 45.3184
rfoot 15.5812 23.2297
rtoes 36.9198
lfemur -29.1202 5.05151 -22.1025
ltibia 27.2624
lfoot -5.69592 -1.7352
ltoes -3.95503
1827
root -4.93838 17.6962 4.19629 189.536 -69.4859 179.915
lowerback 1.62156 -3.64778 -7.88811
upperback 1.92108 -5.05368 4.46233
thorax 2.19588 -2.76588 9.0901
lowerneck -3.39584 -6.1369 -12.7735
upperneck 42.195 -13.5181 2.62213
head 17.064 -8.5889 1.00989
rclavicle -1.63003e-014 3.29983e-014
rhumerus -34.3717 -5.04554 -72.2311
rradius 41.4414
rwrist 25.0361
rhand -29.8156 9.15547
rfingers 7.12502
rthumb -3.13934 -20.8012
lclavicle -1.63003e-014 3.29983e-014
lhumerus -33.7221 4.7849 82.1722
lradius 40.9525
lwrist -3.67337
lhand -15.9725 25.304
lfingers 7.12502
lthumb 10.2267 55.0354
rfemur -19.7554 0.451548 24.0802
rtibia 46.7065
rfoot 16.8981 23.0193
rtoes 35.2733
lfemur -28.8904 5.46544 -22.2317
ltibia 27.3562
lfoot -5.9554 -1.97387
ltoes -3.9015
